HIERARCHY
ROOT Hips
{
	OFFSET	0.00	0.00	0.00
	CHANNELS 6 Xposition Yposition Zposition Zrotation Xrotation Yrotation
	JOINT LeftUpLeg
	{
		OFFSET	 0.126116	-0.014019	-0.065224
		CHANNELS 3 Zrotation Xrotation Yrotation
		JOINT LeftLeg
		{
			OFFSET	 0.000000	 0.000000	 0.569914
			CHANNELS 3 Zrotation Xrotation Yrotation
			JOINT LeftFoot
			{
				OFFSET	 0.000000	 0.000000	 0.544423
				CHANNELS 3 Zrotation Xrotation Yrotation
				JOINT LeftToeBase
				{
					OFFSET	 0.000000	 0.000000	 0.207117
					CHANNELS 3 Zrotation Xrotation Yrotation
					End Site
					{
						OFFSET	 0.000000	 0.000000	 0.207117
					}
				}
			}
		}
	}
	JOINT RightUpLeg
	{
		OFFSET	-0.124023	-0.008373	-0.065224
		CHANNELS 3 Zrotation Xrotation Yrotation
		JOINT RightLeg
		{
			OFFSET	 0.000000	 0.000000	 0.570047
			CHANNELS 3 Zrotation Xrotation Yrotation
			JOINT RightFoot
			{
				OFFSET	 0.000000	 0.000000	 0.544354
				CHANNELS 3 Zrotation Xrotation Yrotation
				JOINT RightToeBase
				{
					OFFSET	 0.000000	 0.000000	 0.207540
					CHANNELS 3 Zrotation Xrotation Yrotation
					End Site
					{
						OFFSET	 0.000000	 0.000000	 0.207540
					}
				}
			}
		}
	}
	JOINT Spine
	{
		OFFSET	 0.000184	-0.007763	 0.117403
		CHANNELS 3 Zrotation Xrotation Yrotation
		JOINT Spine1
		{
			OFFSET	 0.000000	 0.000000	 0.137269
			CHANNELS 3 Zrotation Xrotation Yrotation
			JOINT Spine2
			{
				OFFSET	 0.000000	 0.000000	 0.156879
				CHANNELS 3 Zrotation Xrotation Yrotation
				JOINT LeftShoulder
				{
					OFFSET	 0.080501	-0.002496	 0.160144
					CHANNELS 3 Zrotation Xrotation Yrotation
					JOINT LeftArm
					{
						OFFSET	 0.000000	 0.000000	 0.164363
						CHANNELS 3 Zrotation Xrotation Yrotation
						JOINT LeftForeArm
						{
							OFFSET	 0.000000	 0.000000	 0.364576
							CHANNELS 3 Zrotation Xrotation Yrotation
							JOINT LeftHand
							{
								OFFSET	 0.000000	 0.000000	 0.360812
								CHANNELS 3 Zrotation Xrotation Yrotation
								JOINT LeftHandIndex1
								{
									OFFSET	 0.000000	 0.000000	 0.086006
									CHANNELS 3 Zrotation Xrotation Yrotation
									JOINT LeftHandIndex2
									{
										OFFSET	 0.000000	 0.000000	 0.047236
										CHANNELS 3 Zrotation Xrotation Yrotation
										JOINT LeftHandIndex3
										{
											OFFSET	-0.004284	-0.000551	 0.038166
											CHANNELS 3 Zrotation Xrotation Yrotation
											End Site
											{
												OFFSET	-0.004284	-0.000551	 0.038166
											}
										}
									}
								}
							}
						}
					}
				}
				JOINT Neck
				{
					OFFSET	 0.000000	 0.000000	 0.176489
					CHANNELS 3 Zrotation Xrotation Yrotation
					JOINT Head
					{
						OFFSET	 0.000000	-0.001747	 0.077940
						CHANNELS 3 Zrotation Xrotation Yrotation
						End Site
						{
							OFFSET	 0.000000	-0.001747	 0.077940
						}
					}
				}
				JOINT RightShoulder
				{
					OFFSET	-0.080363	 0.000306	 0.159706
					CHANNELS 3 Zrotation Xrotation Yrotation
					JOINT RightArm
					{
						OFFSET	 0.000000	 0.000000	 0.164196
						CHANNELS 3 Zrotation Xrotation Yrotation
						JOINT RightForeArm
						{
							OFFSET	 0.000000	 0.000000	 0.365611
							CHANNELS 3 Zrotation Xrotation Yrotation
							JOINT RightHand
							{
								OFFSET	 0.000000	 0.000000	 0.360648
								CHANNELS 3 Zrotation Xrotation Yrotation
								JOINT RightHandIndex1
								{
									OFFSET	 0.000000	 0.000000	 0.069977
									CHANNELS 3 Zrotation Xrotation Yrotation
									JOINT RightHandIndex2
									{
										OFFSET	 0.000000	 0.000000	 0.052305
										CHANNELS 3 Zrotation Xrotation Yrotation
										JOINT RightHandIndex3
										{
											OFFSET	 0.009002	-0.000782	 0.042196
											CHANNELS 3 Zrotation Xrotation Yrotation
											End Site
											{
												OFFSET	 0.009002	-0.000782	 0.042196
											}
										}
									}
								}
							}
						}
					}
				}
			}
		}
	}
}
MOTION
Frames:    13
Frame Time: 0.03333334
-0.057803	-2.248487	 1.157339	 5.092278	-1.325397	-3.488729	 15.060270	-15.871130	-173.900700	 1.118046	-50.726280	 0.592475	 107.900900	 82.437840	-112.405900	-2.369607	 31.579690	-0.069127	-19.936800	-36.850100	-175.671600	 13.743080	-59.788100	 12.598880	 17.366420	 81.551760	-12.172890	 2.358858	 33.016650	 0.103608	 0.387296	 8.709444	 1.059998	 0.989956	 2.759451	 2.440194	-6.621240	-2.752099	-3.048803	-93.949710	 59.010130	 175.358100	 14.673520	 32.494880	-37.376280	-17.926160	 2.732830	-9.240241	 1.140213	-5.601351	-7.487196	-4.869021	 19.249140	-2.786537	-3.883518	 21.447320	 2.204777	-4.808272	 5.545353	 0.146974	-0.071977	-5.079796	 0.186152	-8.535954	 1.930788	 2.173542	 89.775350	 61.654060	 179.984000	-19.048690	 50.606530	 10.544880	 14.343480	 3.363996	 16.670150	-4.939759	 9.238906	 0.562694	 6.292896	 24.753360	-0.537219	 1.901904	 44.567730	-7.007734	 0.553941	 24.154670	 3.554275
-0.059258	-2.291739	 1.155760	 6.239327	-0.135951	-3.690908	 13.757090	-14.693720	-174.227900	 1.696693	-50.026630	 1.030019	 116.991400	 82.619320	-121.660800	-2.366911	 32.022840	-0.079192	-23.746050	-40.644050	-177.976700	 14.189720	-54.023700	 12.191270	 69.152210	 87.115270	-65.976410	 2.360076	 32.836150	 0.099422	 0.767321	 7.855134	 0.941845	 0.928932	 2.618039	 2.755837	-6.855270	-2.927933	-3.166527	-94.269000	 58.988410	 174.680300	 13.274930	 29.660240	-38.280440	-18.452280	 2.675049	-9.141035	 1.935463	-6.377110	-8.129618	-4.854934	 19.606000	-2.809438	-3.861684	 21.725800	 2.182599	-4.797434	 5.673015	 0.139499	-0.014674	-5.145999	 0.281213	-8.565313	 1.872770	 2.005518	 89.629000	 61.832360	 179.632500	-18.402440	 52.009260	 7.849586	 12.898330	 3.154029	 17.343260	-5.480606	 10.186020	-0.174460	 6.255305	 22.224830	-0.586245	 2.171248	 42.281810	-7.246070	 1.085992	 21.766870	 3.294603
-0.060622	-2.341781	 1.151292	 6.615193	 0.660890	-4.213406	 13.158500	-12.478850	-174.512100	 1.968381	-49.101280	 1.221369	 129.163900	 82.642750	-133.742800	-2.359371	 33.176080	-0.105753	-23.745280	-43.617870	-179.242600	 13.096870	-47.248420	 10.265420	 140.215900	 82.789420	-138.900100	 2.353546	 33.773380	 0.121314	 1.726847	 7.007272	 1.241792	 0.944019	 3.383430	 2.866363	-6.967982	-3.315769	-3.228070	-94.470180	 58.875170	 174.269900	 11.128250	 26.904960	-39.398100	-19.287490	 2.602217	-9.012141	 1.570300	-6.959237	-7.319941	-4.827502	 20.182840	-2.822489	-3.826155	 22.174720	 2.146499	-4.772022	 5.971520	 0.121911	 0.020549	-5.269560	 0.340667	-8.588804	 1.784649	 1.920252	 89.455940	 62.021580	 179.211700	-17.220460	 53.354390	 4.690632	 10.610060	 2.767993	 18.667840	-6.054729	 10.997060	-2.023216	 6.199720	 19.235720	-0.701259	 2.508764	 39.118630	-7.539789	 1.732713	 18.735630	 3.004631
-0.064094	-2.402313	 1.143975	 6.997408	 0.737079	-4.508459	 12.191750	-8.911542	-175.487400	 2.395211	-47.809240	 1.513596	 133.494700	 83.666050	-137.902000	-2.329744	 36.898410	-0.195406	-22.851140	-45.558670	 179.958200	 12.608330	-40.475480	 8.768149	 130.619300	 82.666020	-130.572400	 2.335666	 36.035470	 0.175727	 2.354995	 7.014260	 1.407310	 0.919270	 3.840202	 2.979506	-6.983166	-3.696728	-3.308219	-94.541400	 58.957940	 174.104800	 8.547785	 25.074980	-40.356940	-19.135310	 2.501850	-8.850363	 1.074215	-8.194601	-7.661759	-4.849670	 20.516690	-3.049723	-3.785381	 22.683450	 2.105091	-4.726639	 6.501572	 0.090334	 0.117245	-5.409669	 0.340644	-8.446503	 1.811752	 1.581470	 89.357950	 61.916660	 178.978900	-15.422090	 54.257760	 1.117405	 8.473404	 2.283911	 18.907700	-6.009147	 10.775310	-3.986918	 6.167216	 15.996830	-0.649412	 2.887117	 35.122180	-7.861139	 2.397907	 15.477210	 2.737962
-0.071672	-2.467902	 1.132080	 7.388429	 0.412955	-3.756701	 11.038950	-4.969609	-177.924300	 2.448578	-46.876530	 1.530053	 94.609090	 87.141780	-97.927250	-2.208592	 46.330700	-0.460558	-21.287810	-48.651310	 178.586300	 9.227452	-37.806890	 6.159951	 11.540900	 82.178280	-7.605124	 2.340107	 35.509630	 0.162864	 2.850593	 7.028005	 0.735058	 0.984139	 4.945951	 2.954277	-7.017956	-4.107281	-3.460513	-94.476230	 59.313610	 174.185000	 6.338061	 23.857060	-41.715850	-18.952240	 2.378065	-8.647021	 0.277051	-9.419828	-8.267575	-4.887990	 20.676560	-3.322150	-3.757565	 23.026600	 2.076846	-4.654086	 7.340557	 0.039397	 0.232825	-5.477729	 0.254127	-8.180318	 1.966711	 1.604126	 89.354470	 61.503350	 178.985800	-13.875870	 54.541660	-2.622075	 6.544849	 1.752742	 19.834410	-6.181201	 9.995978	-5.334104	 6.241464	 12.695920	-0.123871	 3.093540	 32.715610	-8.032248	 3.003978	 12.393840	 2.524894
-0.080776	-2.543058	 1.118942	 8.661796	-0.638694	-2.529625	 10.717640	 0.259013	 178.279800	-0.561955	-44.918350	-0.645871	 4.512010	 78.944950	-3.148230	-1.911347	 57.808700	-0.920868	-16.188500	-50.714280	 179.899900	 7.412996	-38.173160	 5.071191	-10.769210	 65.196410	 21.452710	 2.333605	 36.273750	 0.181597	 2.868032	 7.387115	-0.451412	 0.789028	 6.437647	 2.914204	-7.185770	-4.465250	-3.739314	-94.384900	 59.039270	 174.425300	 5.202095	 22.205970	-43.073650	-18.979760	 2.233859	-8.399851	 0.001866	-8.357404	-7.913161	-4.894499	 20.944440	-3.449813	-3.731358	 23.347020	 2.050242	-4.564307	 8.364470	-0.024360	 0.378045	-5.406367	 0.290621	-7.976425	 2.348203	 2.043730	 89.200630	 61.403020	 178.625900	-12.693220	 54.583070	-4.648481	 5.465623	 1.386249	 19.517050	-6.673584	 9.138203	-4.830289	 6.347075	 9.706250	 0.402471	 3.322568	 29.839120	-8.217994	 3.460141	 10.008430	 2.384423
-0.091485	-2.630505	 1.109082	 10.263200	-1.408399	-1.080116	 12.041900	 5.883505	 173.161700	 1.454983	-41.589870	 0.731729	-2.232131	 56.478530	 8.990024	-1.125561	 70.052880	-1.870610	-19.430560	-48.629510	 176.610600	 8.512339	-38.086960	 5.749477	-8.488999	 54.781900	 20.179160	 2.355182	 33.546380	 0.115972	 2.857865	 7.460304	-1.294908	-0.074148	 7.083208	 1.711687	-7.445552	-4.410452	-3.416986	-94.200680	 59.514750	 174.747000	 5.317952	 21.535310	-43.519380	-17.548450	 2.057465	-8.107387	 0.966424	-6.491352	-8.605213	-4.805136	 21.310880	-3.041178	-3.662293	 24.178290	 1.980170	-4.494868	 9.145653	-0.074212	 0.384508	-5.347114	 0.220494	-7.995593	 2.843141	 2.143329	 89.015910	 60.677820	 178.233900	-11.763560	 53.970050	-6.452029	 6.152898	 1.323949	 19.907690	-5.854900	 8.114215	-2.906496	 6.378917	 8.692895	 0.541213	 3.389324	 28.957370	-8.271236	 3.656764	 8.964862	 2.329344
-0.102409	-2.724393	 1.102742	 9.229410	-2.022783	 0.348048	 21.047170	 8.340627	 164.982800	 0.397795	-41.644160	 0.029950	 1.855508	 40.009680	 13.173900	-2.307097	 39.182940	-0.253936	-21.295200	-43.945080	 172.919700	 6.612974	-39.575420	 4.711385	-6.910672	 55.236790	 20.355180	 2.372755	 30.769580	 0.052379	 4.666671	 7.819294	-2.166540	-0.859555	 6.038121	 0.914215	-7.301176	-3.744110	-3.280683	-94.054160	 59.785320	 175.024400	 5.862588	 22.250940	-42.200140	-15.268240	 1.850381	-7.754540	 1.682601	-5.674198	-8.404269	-4.742418	 21.770140	-2.809182	-3.587042	 25.063230	 1.903833	-4.433206	 9.831455	-0.118877	 0.284664	-5.402394	 0.176143	-8.112944	 2.988545	 2.306974	 89.075440	 60.264910	 178.393000	-11.636460	 53.556560	-7.489346	 6.894485	 1.284439	 19.768340	-4.626456	 6.441549	-1.161477	 6.405692	 9.944632	 0.642153	 3.304083	 30.079730	-8.203182	 3.581157	 9.367193	 2.350132
-0.115059	-2.838356	 1.102003	 6.823337	-2.967547	 1.374849	 25.295540	 6.907204	 159.395500	-3.923794	-49.508340	-3.254841	 4.639519	 47.170480	 10.446070	-2.381167	 29.453870	-0.021787	-20.894700	-41.865000	 171.152300	 6.590428	-47.715370	 5.449910	-8.060596	 63.760360	 21.871570	 2.374317	 30.485960	 0.046040	 8.208061	 8.567945	-2.864943	-1.102298	 3.704980	 0.759482	-6.833684	-2.407996	-3.089113	-93.946460	 59.473670	 175.303000	 7.079403	 23.602310	-39.603790	-12.950230	 1.589472	-7.267328	 1.159688	-5.851623	-7.462095	-4.633767	 23.237630	-2.600973	-3.496672	 26.097750	 1.812218	-4.301245	 11.274020	-0.215610	 0.130917	-5.307239	 0.069130	-8.233677	 2.875526	 2.245367	 89.401250	 60.253490	 179.134100	-12.795960	 53.609590	-5.268699	 8.134484	 1.389787	 14.655660	-3.122847	 4.103874	 0.053942	 6.383461	 13.115250	 0.522414	 3.027561	 33.503360	-7.977912	 3.179089	 11.484320	 2.468904
-0.124206	-2.941466	 1.108711	 5.340189	-3.583569	 1.387855	 20.409000	 3.555289	 161.210400	-4.184543	-61.557480	-3.991476	-0.481220	 62.769970	 12.701860	-2.379019	 29.880900	-0.031181	-20.249030	-38.969580	 171.868000	 5.605153	-54.044890	 5.158071	-9.607262	 72.309690	 23.653020	 2.374309	 30.488110	 0.046087	 11.481820	 9.064343	-2.777342	-0.973949	 1.952729	 0.755650	-6.540052	-1.364815	-2.728565	-93.789980	 59.701450	 175.612000	 9.126447	 26.142150	-37.527190	-9.675410	 1.329408	-6.752761	 0.750534	-4.083610	-6.088131	-4.587429	 24.022120	-2.559563	-3.421813	 26.932390	 1.736367	-4.179948	 12.570080	-0.305874	-0.025742	-5.138899	-0.038564	-8.375162	 2.743803	 2.027732	 89.557270	 59.829400	 179.495700	-14.795130	 53.146960	-2.755889	 9.758212	 1.395022	 15.625480	-1.903651	 1.580805	 0.632016	 6.374353	 16.089720	 0.440333	 2.809575	 35.983380	-7.796042	 2.696703	 13.970050	 2.629240
-0.129777	-3.044901	 1.122475	 3.760473	-3.804932	 1.161641	 15.098990	-5.111008	 166.123500	-1.242402	-75.937830	-1.547339	-22.637210	 78.827900	 32.354730	-2.367932	 31.857150	-0.075422	-19.511510	-34.243680	 173.069200	 3.500000	-56.693020	 3.560502	-14.408200	 79.491200	 28.787450	 2.373874	 30.567650	 0.047859	 15.188350	 9.227079	-2.713898	-0.575267	 1.894831	 1.144931	-6.349360	-1.323813	-2.750162	-93.640790	 60.115590	 175.885800	 11.763350	 29.674960	-36.066750	-5.339205	 1.042753	-6.139767	 1.177523	-1.488239	-3.970549	-4.549364	 24.971040	-2.642345	-3.361990	 27.585200	 1.675771	-4.113025	 13.272820	-0.356195	-0.231213	-4.892141	-0.113835	-8.609583	 2.385053	 2.254552	 89.696510	 59.822130	 179.808000	-16.987230	 50.733120	 5.146467	 11.384290	 1.365854	 13.926080	-1.404824	 1.325631	 1.450052	 6.380330	 18.533390	 0.433189	 2.580127	 38.403260	-7.601083	 2.236781	 16.279030	 2.799489
-0.132604	-3.156110	 1.140151	 2.144138	-3.499685	 0.968833	 16.516900	-17.054390	 169.509600	-10.719100	-81.271050	-10.946690	-99.105160	 86.137500	 106.643300	-2.379888	 29.710560	-0.027422	-18.013840	-28.374270	 174.694800	 0.926108	-56.370160	 1.402313	-23.910740	 84.978390	 38.417340	 2.369886	 31.271530	 0.063657	 18.639420	 8.991735	-2.793399	 0.204202	 1.968711	 1.673031	-6.126050	-1.528415	-2.940357	-93.344730	 60.289030	 176.519900	 14.792180	 34.332440	-34.197340	-1.777620	 0.765535	-5.459304	 2.172708	 0.388392	-1.500862	-4.519957	 25.580750	-2.664811	-3.314281	 28.097160	 1.627457	-4.076730	 13.650340	-0.383643	-0.383966	-4.783356	-0.181692	-8.756678	 2.028542	 2.579447	 89.979560	 60.204680	-179.551900	-18.533950	 46.990980	 15.157870	 12.566110	 1.039286	 8.971400	-1.859529	 1.736833	 2.469033	 6.376750	 19.910210	 0.383014	 2.448081	 39.713650	-7.487428	 1.993948	 17.472460	 2.895956
-0.132232	-3.273679	 1.157305	 0.455160	-2.488031	-0.212702	 22.549700	-27.630130	 176.271400	-12.417010	-74.837400	-12.339030	-177.004900	 87.801620	-178.193800	-2.382189	 29.243090	-0.017173	-15.782170	-22.545370	 177.495300	-0.319985	-54.198940	 0.355200	-84.998840	 87.867510	 99.357020	 2.362870	 32.410630	 0.089608	 21.761740	 8.405516	-1.717313	 1.334660	 1.990927	 1.809790	-5.891591	-1.845419	-2.821443	-93.072350	 60.203740	 177.131700	 17.777610	 39.318940	-31.110970	 1.710840	 0.496234	-4.684537	 3.510119	 2.334134	 0.013437	-4.432425	 27.121080	-2.622162	-3.198981	 29.303050	 1.510745	-3.987023	 14.572590	-0.451922	-0.486063	-4.806014	-0.181163	-8.891827	 1.830981	 2.679774	 90.138470	 60.596090	-179.180800	-18.861030	 43.103320	 24.702340	 13.049400	 0.607120	 4.706365	-2.272728	 2.345840	 4.893175	 6.394700	 19.986670	 0.497618	 2.414986	 40.033230	-7.458783	 1.942879	 17.721100	 2.916804
